Coordinates
version=1
nRows=12
nColumns=24
inDegrees=yes

Units are S.I. units (second, meters, Newtons, ...)
Angles are in degrees.

endheader
time	pelvis_tilt	pelvis_list	pelvis_rotation	pelvis_tx	pelvis_ty	pelvis_tz	hip_flexion_r	hip_adduction_r	hip_rotation_r	knee_angle_r	ankle_angle_r	subtalar_angle_r	mtp_angle_r	hip_flexion_l	hip_adduction_l	hip_rotation_l	knee_angle_l	ankle_angle_l	subtalar_angle_l	mtp_angle_l	lumbar_extension	lumbar_bending	lumbar_rotation
      1.15800000	     -6.34854992	      0.99228669	     -5.29522954	      0.22573125	      1.06415998	      0.29362264	     23.48158899	     -4.20563664	     -5.24830266	    -71.25562269	      3.33764149	     -5.75605244	      7.55060765	     16.39327507	      0.89588800	     -3.17403549	    -19.64086104	     13.47423363	      4.71964162	      3.75177613	     -5.31096021	     -1.24997846	      0.85754454
      1.16216667	     -6.33486625	      0.84679106	     -5.28310526	      0.23094998	      1.06542681	      0.29352748	     23.94750108	     -3.96577868	     -5.35072937	    -70.99237897	      3.60207326	     -5.40579311	      7.48366133	     15.79060613	      0.78225940	     -3.17701876	    -19.08759041	     13.46198180	      4.80417302	      3.74062382	     -5.34980441	     -1.09459176	      0.74635503
      1.16633333	     -6.29903665	      0.70360925	     -5.26531858	      0.23616824	      1.06670096	      0.29343824	     24.37490877	     -3.72936099	     -5.45756904	    -70.66456241	      3.86292886	     -5.02854072	      7.44156890	     15.16260153	      0.67307225	     -3.17893326	    -18.52696075	     13.44705657	      4.89299453	      3.73090595	     -5.41726686	     -0.93836704	      0.64285193
      1.17050000	     -6.28947555	      0.55186523	     -5.24354466	      0.24138399	      1.06788332	      0.29336153	     24.81592072	     -3.47374308	     -5.56444092	    -70.27436195	      4.10511961	     -4.66646599	      7.42237620	     14.56989247	      0.54923913	     -3.19099804	    -17.97913165	     13.40082240	      4.98819311	      3.72292701	     -5.46003136	     -0.77284619	      0.55644379
      1.17466667	     -6.24152245	      0.42250055	     -5.20470891	      0.24660252	      1.06906264	      0.29324533	     25.20627369	     -3.26056808	     -5.69020287	    -69.84211599	      4.38152692	     -4.24931299	      7.39841434	     13.93170670	      0.46148769	     -3.16998556	    -17.41378181	     13.40527796	      5.06733029	      3.71286162	     -5.53746325	     -0.63758132	      0.40700795
      1.17883333	     -6.20344206	      0.28654954	     -5.16321442	      0.25181889	      1.07017912	      0.29314764	     25.59162533	     -3.03282540	     -5.81527332	    -69.34823973	      4.63215599	     -3.85677542	      7.38797658	     13.30994071	      0.36205205	     -3.15856604	    -16.85889112	     13.38352607	      5.14773376	      3.70330897	     -5.60733151	     -0.48733816	      0.28659580
      1.18300000	     -6.16539147	      0.14659316	     -5.11267005	      0.25702870	      1.07124367	      0.29304617	     25.96151374	     -2.80063296	     -5.94674496	    -68.79693772	      4.87361187	     -3.48423486	      7.38645049	     12.69290779	      0.25812625	     -3.14200085	    -16.30945925	     13.35973744	      5.22965784	      3.69402195	     -5.68024296	     -0.33472329	      0.16010203
      1.18716667	     -6.13743734	      0.00989326	     -5.05567356	      0.26223908	      1.07221819	      0.29294124	     26.33047637	     -2.57295616	     -6.08486274	    -68.19791075	      5.10671593	     -3.13419088	      7.39301095	     12.09431539	      0.15639684	     -3.12436430	    -15.77296663	     13.34169096	      5.31340571	      3.68595465	     -5.73921563	     -0.18206067	      0.03207050
      1.19133333	     -6.10005663	     -0.11682314	     -4.99377976	      0.26744537	      1.07314011	      0.29283219	     26.67863245	     -2.35811761	     -6.22361889	    -67.55361231	      5.33395146	     -2.80636855	      7.40622355	     11.48915033	      0.06654951	     -3.10518122	    -15.23926075	     13.32609559	      5.39158356	      3.67864996	     -5.80867213	     -0.04040280	     -0.09546071
      1.19550000	     -6.06816768	     -0.23979653	     -4.92609349	      0.27264973	      1.07399961	      0.29273040	     27.01889768	     -2.14605327	     -6.36275375	    -66.85820051	      5.55106241	     -2.50486817	      7.42442796	     10.89442972	     -0.02051134	     -3.07898113	    -14.71084916	     13.30801075	      5.46008803	      3.67222833	     -5.87289821	      0.08984535	     -0.22620762
      1.19966667	     -6.03060308	     -0.36757224	     -4.85037594	      0.27784638	      1.07479077	      0.29261162	     27.33853319	     -1.93415340	     -6.51316670	    -66.11577403	      5.75598590	     -2.24177419	      7.44738328	     10.30059853	     -0.11203555	     -3.04840335	    -14.19385430	     13.29656780	      5.53339108	      3.66713663	     -5.94704989	      0.23875036	     -0.36155653
      1.20383333	     -6.00245955	     -0.47665137	     -4.77584339	      0.28303705	      1.07548345	      0.29250844	     27.66180218	     -1.73937197	     -6.65329696	    -65.33731815	      5.95982576	     -2.00789846	      7.47517574	      9.72209706	     -0.18558788	     -3.01485063	    -13.68384419	     13.28271493	      5.59302933	      3.66257194	     -6.01049405	      0.36192175	     -0.50046467
